{
	"asset":{
		"generator":"Khronos glTF Blender I/O v4.3.47",
		"version":"2.0"
	},
	"scene":0,
	"scenes":[
		{
			"name":"Scene",
			"nodes":[
				0,
				1
			]
		}
	],
	"nodes":[
		{
			"mesh":0,
			"name":"Cube.001"
		},
		{
			"mesh":1,
			"name":"Cube.002",
			"scale":[
				0.11293810606002808,
				0.11293810606002808,
				0.11293810606002808
			],
			"translation":[
				0,
				1.6616644859313965,
				0
			]
		}
	],
	"materials":[
		{
			"doubleSided":true,
			"name":"Material.001",
			"pbrMetallicRoughness":{
				"baseColorFactor":[
					0.800000011920929,
					0.800000011920929,
					0.800000011920929,
					1
				],
				"metallicFactor":0,
				"roughnessFactor":0.5
			}
		}
	],
	"meshes":[
		{
			"name":"Cube.001",
			"primitives":[
				{
					"attributes":{
						"POSITION":0,
						"NORMAL":1,
						"TEXCOORD_0":2
					},
					"indices":3,
					"material":0
				}
			]
		},
		{
			"name":"Cube.002",
			"primitives":[
				{
					"attributes":{
						"POSITION":4,
						"NORMAL":5,
						"TEXCOORD_0":6
					},
					"indices":7
				}
			]
		}
	],
	"accessors":[
		{
			"bufferView":0,
			"componentType":5126,
			"count":8610,
			"max":[
				0.8660344481468201,
				1.5533320903778076,
				0.15663933753967285
			],
			"min":[
				-0.8660344481468201,
				0.007027850951999426,
				-0.13912451267242432
			],
			"type":"VEC3"
		},
		{
			"bufferView":1,
			"componentType":5126,
			"count":8610,
			"type":"VEC3"
		},
		{
			"bufferView":2,
			"componentType":5126,
			"count":8610,
			"type":"VEC2"
		},
		{
			"bufferView":3,
			"componentType":5123,
			"count":13008,
			"type":"SCALAR"
		},
		{
			"bufferView":4,
			"componentType":5126,
			"count":1544,
			"max":[
				0.7358551025390625,
				0.9998412132263184,
				1.0403960943222046
			],
			"min":[
				-0.7254659533500671,
				-1.288901686668396,
				-0.8026074171066284
			],
			"type":"VEC3"
		},
		{
			"bufferView":5,
			"componentType":5126,
			"count":1544,
			"type":"VEC3"
		},
		{
			"bufferView":6,
			"componentType":5126,
			"count":1544,
			"type":"VEC2"
		},
		{
			"bufferView":7,
			"componentType":5123,
			"count":2304,
			"type":"SCALAR"
		}
	],
	"bufferViews":[
		{
			"buffer":0,
			"byteLength":103320,
			"byteOffset":0,
			"target":34962
		},
		{
			"buffer":0,
			"byteLength":103320,
			"byteOffset":103320,
			"target":34962
		},
		{
			"buffer":0,
			"byteLength":68880,
			"byteOffset":206640,
			"target":34962
		},
		{
			"buffer":0,
			"byteLength":26016,
			"byteOffset":275520,
			"target":34963
		},
		{
			"buffer":0,
			"byteLength":18528,
			"byteOffset":301536,
			"target":34962
		},
		{
			"buffer":0,
			"byteLength":18528,
			"byteOffset":320064,
			"target":34962
		},
		{
			"buffer":0,
			"byteLength":12352,
			"byteOffset":338592,
			"target":34962
		},
		{
			"buffer":0,
			"byteLength":4608,
			"byteOffset":350944,
			"target":34963
		}
	],
	"buffers":[
		{
			"byteLength":355552,
			"uri":"gozer.bin"
		}
	]
}
