{
	"asset":{
		"generator":"Khronos glTF Blender I/O v4.3.47",
		"version":"2.0"
	},
	"scene":0,
	"scenes":[
		{
			"name":"Scene",
			"nodes":[
				0
			]
		}
	],
	"nodes":[
		{
			"mesh":0,
			"name":"Cube"
		}
	],
	"materials":[
		{
			"doubleSided":true,
			"name":"Material.001",
			"pbrMetallicRoughness":{
				"baseColorFactor":[
					0,
					0.8002511262893677,
					0.005871166475117207,
					1
				],
				"metallicFactor":0,
				"roughnessFactor":0.5
			}
		},
		{
			"doubleSided":true,
			"name":"Material.002",
			"pbrMetallicRoughness":{
				"baseColorFactor":[
					0.705990195274353,
					0,
					0.8004899024963379,
					1
				],
				"metallicFactor":0,
				"roughnessFactor":0.5
			}
		}
	],
	"meshes":[
		{
			"name":"Cube.001",
			"primitives":[
				{
					"attributes":{
						"POSITION":0,
						"NORMAL":1,
						"TEXCOORD_0":2
					},
					"indices":3,
					"material":0
				},
				{
					"attributes":{
						"POSITION":4,
						"NORMAL":5,
						"TEXCOORD_0":6
					},
					"indices":7,
					"material":1
				}
			]
		}
	],
	"accessors":[
		{
			"bufferView":0,
			"componentType":5126,
			"count":2262,
			"max":[
				0.1786571592092514,
				0.9915499091148376,
				0.15663933753967285
			],
			"min":[
				-0.1786571592092514,
				0.007027850951999426,
				-0.13912451267242432
			],
			"type":"VEC3"
		},
		{
			"bufferView":1,
			"componentType":5126,
			"count":2262,
			"type":"VEC3"
		},
		{
			"bufferView":2,
			"componentType":5126,
			"count":2262,
			"type":"VEC2"
		},
		{
			"bufferView":3,
			"componentType":5123,
			"count":3516,
			"type":"SCALAR"
		},
		{
			"bufferView":4,
			"componentType":5126,
			"count":7898,
			"max":[
				0.8660344481468201,
				1.7745846509933472,
				0.13166998326778412
			],
			"min":[
				-0.8660344481468201,
				0.9021806120872498,
				-0.13912451267242432
			],
			"type":"VEC3"
		},
		{
			"bufferView":5,
			"componentType":5126,
			"count":7898,
			"type":"VEC3"
		},
		{
			"bufferView":6,
			"componentType":5126,
			"count":7898,
			"type":"VEC2"
		},
		{
			"bufferView":7,
			"componentType":5123,
			"count":11796,
			"type":"SCALAR"
		}
	],
	"bufferViews":[
		{
			"buffer":0,
			"byteLength":27144,
			"byteOffset":0,
			"target":34962
		},
		{
			"buffer":0,
			"byteLength":27144,
			"byteOffset":27144,
			"target":34962
		},
		{
			"buffer":0,
			"byteLength":18096,
			"byteOffset":54288,
			"target":34962
		},
		{
			"buffer":0,
			"byteLength":7032,
			"byteOffset":72384,
			"target":34963
		},
		{
			"buffer":0,
			"byteLength":94776,
			"byteOffset":79416,
			"target":34962
		},
		{
			"buffer":0,
			"byteLength":94776,
			"byteOffset":174192,
			"target":34962
		},
		{
			"buffer":0,
			"byteLength":63184,
			"byteOffset":268968,
			"target":34962
		},
		{
			"buffer":0,
			"byteLength":23592,
			"byteOffset":332152,
			"target":34963
		}
	],
	"buffers":[
		{
			"byteLength":355744,
			"uri":"gozer_kleur.bin"
		}
	]
}
