{
	"asset":{
		"generator":"Khronos glTF Blender I/O v4.3.47",
		"version":"2.0"
	},
	"scene":0,
	"scenes":[
		{
			"name":"Scene",
			"nodes":[
				0
			]
		}
	],
	"nodes":[
		{
			"mesh":0,
			"name":"Gozer"
		}
	],
	"materials":[
		{
			"doubleSided":true,
			"name":"Material.001",
			"pbrMetallicRoughness":{
				"baseColorFactor":[
					0.800000011920929,
					0.800000011920929,
					0.800000011920929,
					1
				],
				"metallicFactor":0,
				"roughnessFactor":0.5
			}
		}
	],
	"meshes":[
		{
			"name":"Gozer",
			"primitives":[
				{
					"attributes":{
						"POSITION":0,
						"NORMAL":1,
						"TEXCOORD_0":2
					},
					"indices":3,
					"material":0
				}
			]
		}
	],
	"accessors":[
		{
			"bufferView":0,
			"componentType":5126,
			"count":10154,
			"max":[
				0.8660344481468201,
				1.7745846509933472,
				0.15663933753967285
			],
			"min":[
				-0.8660344481468201,
				0.007027850951999426,
				-0.13912451267242432
			],
			"type":"VEC3"
		},
		{
			"bufferView":1,
			"componentType":5126,
			"count":10154,
			"type":"VEC3"
		},
		{
			"bufferView":2,
			"componentType":5126,
			"count":10154,
			"type":"VEC2"
		},
		{
			"bufferView":3,
			"componentType":5123,
			"count":15312,
			"type":"SCALAR"
		}
	],
	"bufferViews":[
		{
			"buffer":0,
			"byteLength":121848,
			"byteOffset":0,
			"target":34962
		},
		{
			"buffer":0,
			"byteLength":121848,
			"byteOffset":121848,
			"target":34962
		},
		{
			"buffer":0,
			"byteLength":81232,
			"byteOffset":243696,
			"target":34962
		},
		{
			"buffer":0,
			"byteLength":30624,
			"byteOffset":324928,
			"target":34963
		}
	],
	"buffers":[
		{
			"byteLength":355552,
			"uri":"gozer.bin"
		}
	]
}
